Motion_kv05_j
version=1
nRows=6
nColumns=43
inDegrees=yes
endheader
time	pelvis_tilt	pelvis_list	pelvis_rotation	pelvis_tx	pelvis_ty	pelvis_tz	hip_flexion_r	hip_adduction_r	hip_rotation_r	knee_angle_r	ankle_angle_r	subtalar_angle_r	mtp_angle_r	hip_flexion_l	hip_adduction_l	hip_rotation_l	knee_angle_l	ankle_angle_l	subtalar_angle_l	mtp_angle_l	lumbar_extension	lumbar_bending	lumbar_rotation	neck_flexion	neck_lateral_bending	neck_rotation	arm_flex_r	arm_add_r	arm_rot_r	elbow_flex_r	pro_sup_r	wrist_flex_r	wrist_dev_r	hand_finger_flex_r	arm_flex_l	arm_add_l	arm_rot_l	elbow_flex_l	pro_sup_l	wrist_flex_l	wrist_dev_l	hand_finger_flex_l
      0.36000000	     -5.07090266	     42.57250409	    -86.07294537	      0.01280004	      1.55052038	      0.86581203	     97.22456041	     -4.25802975	    -10.11556834	   -133.94325909	     36.37016023	      9.65434395	     -0.62153894	     92.00630137	      0.59505927	      0.78599092	   -136.46174184	     45.25117919	     12.59476554	    -13.74638658	    -62.99835565	      1.53538178	     -0.37906223	     59.99999993	      2.11130690	      5.28781230	     85.19436704	    -22.80692970	     45.93037868	     34.25867667	    143.99369978	    -32.61241917	     -5.07050201	     29.58147077	     80.68536451	    -24.20490407	     33.09404477	     31.22485283	    154.56150691	    -68.13225296	     -7.17333633	     90.00021046
      0.36250000	     -5.04448241	     42.23456017	    -85.98654571	      0.01285410	      1.55324387	      0.86852286	     97.57200412	     -4.36077423	    -10.30176976	   -133.94906541	     36.73073205	      9.86652833	     -0.56130226	     92.51594104	      0.65357230	      0.65907843	   -136.31214582	     45.49014263	     12.59994293	    -13.72030824	    -63.39637987	      1.60989472	     -0.43970860	     59.99999993	      2.22634429	      5.26566793	     85.46889369	    -22.48881495	     46.06113627	     33.86654370	    144.20694068	    -32.49420394	     -4.73598472	     29.03854561	     81.09380852	    -23.83440377	     33.15994929	     30.39508165	    154.61141788	    -67.72655790	     -7.00323419	     90.00021046
      0.36500000	     -4.89065418	     41.77974463	    -85.98585957	      0.01329695	      1.55623617	      0.87152566	     97.75813718	     -4.51204380	    -10.28466456	   -133.91423431	     37.12804377	     10.40549012	     -0.23927150	     92.84638222	      0.70887756	      0.31747928	   -136.06166691	     45.61055227	     12.63227593	    -13.73636312	    -63.93856839	      1.69642788	     -0.67976037	     59.99999993	      2.30622552	      5.42583892	     85.83700630	    -22.54137158	     47.16946922	     34.71484405	    144.86807890	    -28.34267150	     -2.25069790	     19.18194071	     81.50572139	    -23.91650239	     34.22076564	     30.19361351	    155.13218555	    -66.93555286	     -4.67502599	     90.00021046
      0.36750000	     -4.89842993	     41.35657255	    -85.89697288	      0.01333550	      1.55903921	      0.87449422	     97.94048550	     -4.65240411	    -10.52138895	   -133.81740756	     37.54825790	     10.94071844	      0.02644882	     93.21139650	      0.73098081	      0.22415403	   -135.82554037	     45.84474818	     12.67398252	    -13.71610932	    -64.41383450	      1.77638988	     -0.77659828	     59.99999993	      2.39344441	      5.42158826	     85.84512181	    -22.28522472	     46.57687420	     35.04084401	    146.27758227	    -25.26054212	     -1.53478672	     11.97790117	     81.80062235	    -23.76183043	     34.33201526	     29.79434157	    155.90589863	    -66.22160469	     -3.56410289	     90.00021046
      0.37000000	     -4.88723131	     40.91032773	    -85.77073706	      0.01355314	      1.56185291	      0.87749127	     98.09919034	     -4.84067694	    -10.66839436	   -133.69181328	     37.91070068	     11.53642782	      0.13132219	     93.54894711	      0.80841073	      0.04993947	   -135.51826130	     46.03193719	     12.53044268	    -13.68109860	    -64.93364003	      1.87880387	     -0.84490578	     59.99999993	      2.58816134	      5.26998793	     86.09420720	    -22.20235861	     47.16712357	     35.25486977	    146.88680468	    -24.09371519	     -0.36902211	      8.71876024	     82.17062990	    -23.61969011	     34.77775573	     29.48318754	    156.28041277	    -65.34071148	     -2.47741701	     90.00021046
      0.37250000	     -4.81989651	     40.67657731	    -85.68086283	      0.01385466	      1.56427427	      0.88011411	     98.53376861	     -4.98421055	    -10.76596566	   -133.50881871	     38.32661724	     11.53744835	      0.18447384	     94.11113036	      0.90325247	     -0.14376960	   -135.15988764	     46.24727144	     12.61773749	    -13.65393741	    -65.19960307	      2.01339176	     -0.94387812	     59.99999993	      2.56255930	      5.52353719	     86.36519096	    -22.05392541	     47.61300462	     35.15916834	    147.22779382	    -23.75650795	     -0.46197474	      8.09083513	     82.45322760	    -23.36628409	     34.91597650	     28.88590407	    156.40673893	    -64.90779154	     -2.18331392	     89.70381692
